<svg version="1.1" xmlns="http://www.w3.org/2000/svg" viewBox="0 0 1757 316" width="1757" height="316">
  <!-- svg-source:excalidraw -->
  
  <defs>
    <style>
      @font-face {
        font-family: "Virgil";
        src: url("https://excalidraw.com/Virgil.woff2");
      }
      @font-face {
        font-family: "Cascadia";
        src: url("https://excalidraw.com/Cascadia.woff2");
      }
    </style>
  </defs>
  <g stroke-linecap="round" transform="translate(22 10) rotate(0 110 72)"><path d="M0 0 C65.69 0, 131.39 0, 220 0 M0 0 C85.47 0, 170.93 0, 220 0 M220 0 C220 37.17, 220 74.35, 220 144 M220 0 C220 49.08, 220 98.16, 220 144 M220 144 C165.91 144, 111.82 144, 0 144 M220 144 C156.14 144, 92.27 144, 0 144 M0 144 C0 113.87, 0 83.74, 0 0 M0 144 C0 109.46, 0 74.93, 0 0" stroke="#000000" stroke-width="1" fill="none"></path></g><g transform="translate(67 68) rotate(0 58.5 18)"><text x="0" y="25" font-family="Virgil, Segoe UI Emoji" font-size="28px" fill="#000000" text-anchor="start" style="white-space: pre;" direction="ltr">GraphQL</text></g><g stroke-linecap="round" transform="translate(10 173) rotate(0 109.5 66.5)"><path d="M0 0 C79.55 0, 159.1 0, 219 0 M0 0 C53.03 0, 106.06 0, 219 0 M219 0 C219 27.54, 219 55.09, 219 133 M219 0 C219 41.94, 219 83.88, 219 133 M219 133 C165.35 133, 111.7 133, 0 133 M219 133 C134.93 133, 50.86 133, 0 133 M0 133 C0 99.64, 0 66.29, 0 0 M0 133 C0 87.77, 0 42.54, 0 0" stroke="#000000" stroke-width="1" fill="none"></path></g><g transform="translate(89 222) rotate(0 32.5 18)"><text x="0" y="25" font-family="Virgil, Segoe UI Emoji" font-size="28px" fill="#000000" text-anchor="start" style="white-space: pre;" direction="ltr">Rest</text></g><g stroke-linecap="round" transform="translate(356 83) rotate(0 131.5 85)"><path d="M0 0 C65.73 0, 131.45 0, 263 0 M0 0 C101.88 0, 203.77 0, 263 0 M263 0 C263 44.58, 263 89.16, 263 170 M263 0 C263 67.63, 263 135.26, 263 170 M263 170 C181.09 170, 99.18 170, 0 170 M263 170 C179.2 170, 95.39 170, 0 170 M0 170 C0 117.25, 0 64.5, 0 0 M0 170 C0 132.78, 0 95.56, 0 0" stroke="#000000" stroke-width="1" fill="none"></path></g><g transform="translate(416 151) rotate(0 68.5 38.5)"><text x="0" y="17.666666666666668" font-family="Virgil, Segoe UI Emoji" font-size="20px" fill="#000000" text-anchor="start" style="white-space: pre;" direction="ltr">ItemsService</text><text x="0" y="43.333333333333336" font-family="Virgil, Segoe UI Emoji" font-size="20px" fill="#000000" text-anchor="start" style="white-space: pre;" direction="ltr">FoldersService</text><text x="0" y="69" font-family="Virgil, Segoe UI Emoji" font-size="20px" fill="#000000" text-anchor="start" style="white-space: pre;" direction="ltr">FileService</text></g><g transform="translate(435 96) rotate(0 55 18)"><text x="0" y="25" font-family="Virgil, Segoe UI Emoji" font-size="28px" fill="#000000" text-anchor="start" style="white-space: pre;" direction="ltr">Services</text></g><g stroke-linecap="round" transform="translate(739 95) rotate(0 125.5 74.5)"><path d="M0 0 C51.5 0, 102.99 0, 251 0 M0 0 C56.61 0, 113.22 0, 251 0 M251 0 C251 34.13, 251 68.27, 251 149 M251 0 C251 34.75, 251 69.5, 251 149 M251 149 C172.56 149, 94.11 149, 0 149 M251 149 C155.91 149, 60.81 149, 0 149 M0 149 C0 91.27, 0 33.55, 0 0 M0 149 C0 117.61, 0 86.21, 0 0" stroke="#000000" stroke-width="1" fill="none"></path></g><g transform="translate(817 133.5) rotate(0 51 36)"><text x="51" y="25" font-family="Virgil, Segoe UI Emoji" font-size="28px" fill="#000000" text-anchor="middle" style="white-space: pre;" direction="ltr">fn:</text><text x="51" y="61" font-family="Virgil, Segoe UI Emoji" font-size="28px" fill="#000000" text-anchor="middle" style="white-space: pre;" direction="ltr">run-ast</text></g><g stroke-linecap="round" transform="translate(1122 103) rotate(0 112 68)"><path d="M0 0 C79.39 0, 158.78 0, 224 0 M0 0 C78.54 0, 157.07 0, 224 0 M224 0 C224 34.53, 224 69.06, 224 136 M224 0 C224 47.72, 224 95.43, 224 136 M224 136 C167.73 136, 111.46 136, 0 136 M224 136 C147.17 136, 70.34 136, 0 136 M0 136 C0 81.81, 0 27.62, 0 0 M0 136 C0 85.57, 0 35.15, 0 0" stroke="#000000" stroke-width="1" fill="none"></path></g><g transform="translate(1203 152.5) rotate(0 29 18)"><text x="29" y="25" font-family="Virgil, Segoe UI Emoji" font-size="28px" fill="#000000" text-anchor="middle" style="white-space: pre;" direction="ltr">knex</text></g><g stroke-linecap="round" transform="translate(1496 106) rotate(0 125.5 68.5)"><path d="M0 0 C64.8 0, 129.59 0, 251 0 M0 0 C85.55 0, 171.11 0, 251 0 M251 0 C251 33.68, 251 67.37, 251 137 M251 0 C251 39.77, 251 79.54, 251 137 M251 137 C198.48 137, 145.96 137, 0 137 M251 137 C190.8 137, 130.6 137, 0 137 M0 137 C0 105.08, 0 73.16, 0 0 M0 137 C0 107.37, 0 77.73, 0 0" stroke="#000000" stroke-width="1" fill="none"></path></g><g transform="translate(1600.5 156.5) rotate(0 21 18)"><text x="21" y="25" font-family="Virgil, Segoe UI Emoji" font-size="28px" fill="#000000" text-anchor="middle" style="white-space: pre;" direction="ltr">DB</text></g><g stroke-linecap="round"><g transform="translate(244 233) rotate(0 47 -20.5)"><path d="M0 0 C15.67 -6.83, 78.33 -34.17, 94 -41 M0 0 C15.67 -6.83, 78.33 -34.17, 94 -41" stroke="#000000" stroke-width="1" fill="none"></path></g><g transform="translate(244 233) rotate(0 47 -20.5)"><path d="M21.74 -20.68 C17.24 -16.39, 12.73 -12.11, 0 0 M21.74 -20.68 C14.88 -14.16, 8.03 -7.64, 0 0" stroke="#000000" stroke-width="1" fill="none"></path></g><g transform="translate(244 233) rotate(0 47 -20.5)"><path d="M29.94 -1.87 C23.74 -1.48, 17.54 -1.09, 0 0 M29.94 -1.87 C20.5 -1.28, 11.06 -0.69, 0 0" stroke="#000000" stroke-width="1" fill="none"></path></g><g transform="translate(244 233) rotate(0 47 -20.5)"><path d="M72.26 -20.32 C76.76 -24.61, 81.27 -28.89, 94 -41 M72.26 -20.32 C79.12 -26.84, 85.97 -33.36, 94 -41" stroke="#000000" stroke-width="1" fill="none"></path></g><g transform="translate(244 233) rotate(0 47 -20.5)"><path d="M64.06 -39.13 C70.26 -39.52, 76.46 -39.91, 94 -41 M64.06 -39.13 C73.5 -39.72, 82.94 -40.31, 94 -41" stroke="#000000" stroke-width="1" fill="none"></path></g></g><g stroke-linecap="round"><g transform="translate(258.37912313006814 71.30395230686082) rotate(0 39.81043843496593 21.171514050922354)"><path d="M0 0 C13.27 7.06, 66.35 35.29, 79.62 42.34 M0 0 C13.27 7.06, 66.35 35.29, 79.62 42.34" stroke="#000000" stroke-width="1" fill="none"></path></g><g transform="translate(258.37912313006814 71.30395230686082) rotate(0 39.81043843496593 21.171514050922354)"><path d="M29.71 4.18 C23.08 3.25, 16.46 2.31, 0 0 M29.71 4.18 C20.57 2.89, 11.44 1.61, 0 0" stroke="#000000" stroke-width="1" fill="none"></path></g><g transform="translate(258.37912313006814 71.30395230686082) rotate(0 39.81043843496593 21.171514050922354)"><path d="M20.07 22.3 C15.6 17.32, 11.12 12.35, 0 0 M20.07 22.3 C13.9 15.44, 7.73 8.59, 0 0" stroke="#000000" stroke-width="1" fill="none"></path></g><g transform="translate(258.37912313006814 71.30395230686082) rotate(0 39.81043843496593 21.171514050922354)"><path d="M49.91 38.17 C56.54 39.1, 63.16 40.03, 79.62 42.34 M49.91 38.17 C59.05 39.45, 68.18 40.73, 79.62 42.34" stroke="#000000" stroke-width="1" fill="none"></path></g><g transform="translate(258.37912313006814 71.30395230686082) rotate(0 39.81043843496593 21.171514050922354)"><path d="M59.55 20.05 C64.03 25.02, 68.5 29.99, 79.62 42.34 M59.55 20.05 C65.72 26.9, 71.89 33.76, 79.62 42.34" stroke="#000000" stroke-width="1" fill="none"></path></g></g><g stroke-linecap="round"><g transform="translate(633 164.5) rotate(0 46.5 0.5)"><path d="M0 0 C15.5 0.17, 77.5 0.83, 93 1 M0 0 C15.5 0.17, 77.5 0.83, 93 1" stroke="#000000" stroke-width="1" fill="none"></path></g><g transform="translate(633 164.5) rotate(0 46.5 0.5)"><path d="M28.3 -9.96 C20.88 -7.35, 13.46 -4.73, 0 0 M28.3 -9.96 C17.04 -6, 5.78 -2.03, 0 0" stroke="#000000" stroke-width="1" fill="none"></path></g><g transform="translate(633 164.5) rotate(0 46.5 0.5)"><path d="M28.08 10.56 C20.72 7.79, 13.35 5.02, 0 0 M28.08 10.56 C16.91 6.36, 5.74 2.16, 0 0" stroke="#000000" stroke-width="1" fill="none"></path></g><g transform="translate(633 164.5) rotate(0 46.5 0.5)"><path d="M64.7 10.96 C72.12 8.35, 79.54 5.73, 93 1 M64.7 10.96 C75.96 7, 87.22 3.03, 93 1" stroke="#000000" stroke-width="1" fill="none"></path></g><g transform="translate(633 164.5) rotate(0 46.5 0.5)"><path d="M64.92 -9.56 C72.28 -6.79, 79.65 -4.02, 93 1 M64.92 -9.56 C76.09 -5.36, 87.26 -1.16, 93 1" stroke="#000000" stroke-width="1" fill="none"></path></g></g><g stroke-linecap="round"><g transform="translate(1001 166.5) rotate(0 51 0)"><path d="M0 0 C17 0, 85 0, 102 0 M0 0 C17 0, 85 0, 102 0" stroke="#000000" stroke-width="1" fill="none"></path></g><g transform="translate(1001 166.5) rotate(0 51 0)"><path d="M28.19 -10.26 C21.09 -7.68, 13.99 -5.09, 0 0 M28.19 -10.26 C20.87 -7.6, 13.55 -4.93, 0 0" stroke="#000000" stroke-width="1" fill="none"></path></g><g transform="translate(1001 166.5) rotate(0 51 0)"><path d="M28.19 10.26 C21.09 7.68, 13.99 5.09, 0 0 M28.19 10.26 C20.87 7.6, 13.55 4.93, 0 0" stroke="#000000" stroke-width="1" fill="none"></path></g><g transform="translate(1001 166.5) rotate(0 51 0)"><path d="M73.81 10.26 C80.91 7.68, 88.01 5.09, 102 0 M73.81 10.26 C81.13 7.6, 88.45 4.93, 102 0" stroke="#000000" stroke-width="1" fill="none"></path></g><g transform="translate(1001 166.5) rotate(0 51 0)"><path d="M73.81 -10.26 C80.91 -7.68, 88.01 -5.09, 102 0 M73.81 -10.26 C81.13 -7.6, 88.45 -4.93, 102 0" stroke="#000000" stroke-width="1" fill="none"></path></g></g><g stroke-linecap="round"><g transform="translate(1362 176.1483741062807) rotate(0 59 -2.347362908432302)"><path d="M0 0 C19.67 -0.78, 98.33 -3.91, 118 -4.69 M0 0 C19.67 -0.78, 98.33 -3.91, 118 -4.69" stroke="#000000" stroke-width="1" fill="none"></path></g><g transform="translate(1362 176.1483741062807) rotate(0 59 -2.347362908432302)"><path d="M27.76 -11.37 C17.91 -7.34, 8.06 -3.3, 0 0 M27.76 -11.37 C21.74 -8.91, 15.73 -6.44, 0 0" stroke="#000000" stroke-width="1" fill="none"></path></g><g transform="translate(1362 176.1483741062807) rotate(0 59 -2.347362908432302)"><path d="M28.58 9.13 C18.43 5.89, 8.29 2.65, 0 0 M28.58 9.13 C22.38 7.15, 16.19 5.17, 0 0" stroke="#000000" stroke-width="1" fill="none"></path></g><g transform="translate(1362 176.1483741062807) rotate(0 59 -2.347362908432302)"><path d="M90.24 6.68 C100.09 2.64, 109.94 -1.39, 118 -4.69 M90.24 6.68 C96.26 4.21, 102.27 1.75, 118 -4.69" stroke="#000000" stroke-width="1" fill="none"></path></g><g transform="translate(1362 176.1483741062807) rotate(0 59 -2.347362908432302)"><path d="M89.42 -13.83 C99.57 -10.59, 109.71 -7.34, 118 -4.69 M89.42 -13.83 C95.62 -11.85, 101.81 -9.87, 118 -4.69" stroke="#000000" stroke-width="1" fill="none"></path></g></g></svg>