<svg version="1.1" xmlns="http://www.w3.org/2000/svg" viewBox="0 0 1757 316" width="1757" height="316">
  <!-- svg-source:excalidraw -->
  
  <defs>
    <style>
      @font-face {
        font-family: "Virgil";
        src: url("https://excalidraw.com/Virgil.woff2");
      }
      @font-face {
        font-family: "Cascadia";
        src: url("https://excalidraw.com/Cascadia.woff2");
      }
    </style>
  </defs>
  <g stroke-linecap="round" transform="translate(22 10) rotate(0 110 72)"><path d="M-0.8 0.12 C76.54 -0.77, 149.15 -0.82, 219.23 -1.45 M0.8 0.12 C55.99 0.78, 110.47 0.05, 219.71 -0.08 M218.45 -1.55 C219.99 38.31, 218.12 78.78, 221.18 143.42 M220.85 0.93 C219.79 45.73, 218.98 92.68, 220.05 143.47 M218.28 143.5 C147.06 142.66, 72.38 141.72, 1.01 143.72 M219.3 143.43 C152.66 142.59, 85.37 142.11, 0.01 144.7 M-0.86 142.03 C-1 111.01, 1.75 77.12, -1.21 1.85 M-0.34 143.35 C-0.25 96.65, -0.43 49.1, 0.33 -0.01" stroke="#000000" stroke-width="1" fill="none"></path></g><g transform="translate(67 68) rotate(0 58.5 18)"><text x="0" y="25" font-family="Virgil, Segoe UI Emoji" font-size="28px" fill="#000000" text-anchor="start" style="white-space: pre;" direction="ltr">GraphQL</text></g><g stroke-linecap="round" transform="translate(10 173) rotate(0 109.5 66.5)"><path d="M-0.18 -1.52 C64.3 -0.17, 129.01 -2.41, 219.79 -0.96 M0.78 -0.07 C57.33 -2.17, 114.5 -2.38, 219.18 0.28 M220.69 1.67 C218.46 36.94, 221.41 73.07, 218.13 131.77 M218.11 -0.94 C220.84 43.4, 219.83 89.7, 219.58 132.13 M218.54 134.58 C151.64 135.11, 81.25 132.29, 0.75 133.35 M219.34 132.31 C166.61 132.97, 113.31 133.52, -0.67 133.31 M0.96 134.8 C0.14 96.39, -0.07 56.12, 1.75 -0.52 M0.55 132.59 C0.8 86.99, 1.3 39.44, -0.48 -0.76" stroke="#000000" stroke-width="1" fill="none"></path></g><g transform="translate(89 222) rotate(0 32.5 18)"><text x="0" y="25" font-family="Virgil, Segoe UI Emoji" font-size="28px" fill="#000000" text-anchor="start" style="white-space: pre;" direction="ltr">Rest</text></g><g stroke-linecap="round" transform="translate(356 83) rotate(0 131.5 85)"><path d="M-0.07 -0.69 C58.19 2.11, 118.85 0.2, 263.76 -0.41 M0.06 -0.27 C68.01 -1.51, 136.44 -1.69, 263.5 -0.05 M264.26 0.76 C264.31 54.74, 264.64 112.52, 261.87 169.77 M262.06 -0.76 C262.5 45.68, 263.59 90.41, 263.57 170.56 M264.42 168.77 C201.3 168.79, 136.32 169.54, -0.18 170.02 M262.88 169.61 C200.99 170.22, 139.57 169.63, 0.51 170.06 M1.18 168.32 C1.07 116.14, 0.36 64.09, 0.71 -0.87 M-0.8 170.62 C-0.2 133.33, -1.79 94.9, -0.77 0.24" stroke="#000000" stroke-width="1" fill="none"></path></g><g transform="translate(416 151) rotate(0 68.5 38.5)"><text x="0" y="17.666666666666668" font-family="Virgil, Segoe UI Emoji" font-size="20px" fill="#000000" text-anchor="start" style="white-space: pre;" direction="ltr">ItemsService</text><text x="0" y="43.333333333333336" font-family="Virgil, Segoe UI Emoji" font-size="20px" fill="#000000" text-anchor="start" style="white-space: pre;" direction="ltr">FoldersService</text><text x="0" y="69" font-family="Virgil, Segoe UI Emoji" font-size="20px" fill="#000000" text-anchor="start" style="white-space: pre;" direction="ltr">FileService</text></g><g transform="translate(435 96) rotate(0 55 18)"><text x="0" y="25" font-family="Virgil, Segoe UI Emoji" font-size="28px" fill="#000000" text-anchor="start" style="white-space: pre;" direction="ltr">Services</text></g><g stroke-linecap="round" transform="translate(739 95) rotate(0 125.5 74.5)"><path d="M-0.21 0.57 C96.73 -0.82, 190.93 -1.38, 251.12 1.56 M-0.33 0.34 C92.12 -1.94, 184.74 -1.58, 250.3 -0.23 M252.42 0.57 C253.05 34.96, 250.44 70.06, 251.75 148.12 M251.1 -0.41 C249.35 56.25, 250.43 113.91, 250.45 149.5 M250.13 150.06 C187.33 151.88, 124.38 149.2, 1.24 148.06 M251.01 148.63 C181.06 148.12, 111.65 148.17, -0.31 148.21 M-0.12 150.39 C-0.2 96.81, -1.94 43.21, 1.89 1.82 M-0.48 149.89 C0.28 119.43, 1.45 88.3, 0.2 0.76" stroke="#000000" stroke-width="1" fill="none"></path></g><g transform="translate(817 133.5) rotate(0 51 36)"><text x="51" y="25" font-family="Virgil, Segoe UI Emoji" font-size="28px" fill="#000000" text-anchor="middle" style="white-space: pre;" direction="ltr">fn:</text><text x="51" y="61" font-family="Virgil, Segoe UI Emoji" font-size="28px" fill="#000000" text-anchor="middle" style="white-space: pre;" direction="ltr">run-ast</text></g><g stroke-linecap="round" transform="translate(1122 103) rotate(0 112 68)"><path d="M-1.58 0.81 C66.53 -1.68, 128.36 -0.7, 225.35 0.82 M-0.8 -0.61 C86.73 1.45, 175.02 0.64, 223.48 -0.58 M225.74 0.7 C226.12 46.75, 225.2 92.78, 222.25 136.12 M224.76 0.3 C226.1 40.32, 224.95 78.81, 223.53 136.75 M223.51 137.03 C158.93 136.44, 94.26 135.41, 0.04 136.8 M224.06 136.81 C152.29 135.31, 78.21 135.97, 0.14 135.27 M1.37 136.04 C1.41 89.49, 1.54 41.88, 0.48 0.67 M0.31 135.63 C-0.67 82.34, -0.77 28.56, 0.65 -0.39" stroke="#000000" stroke-width="1" fill="none"></path></g><g transform="translate(1203 152.5) rotate(0 29 18)"><text x="29" y="25" font-family="Virgil, Segoe UI Emoji" font-size="28px" fill="#000000" text-anchor="middle" style="white-space: pre;" direction="ltr">knex</text></g><g stroke-linecap="round" transform="translate(1496 106) rotate(0 125.5 68.5)"><path d="M1 -0.62 C73.99 -0.08, 149.42 1.33, 249.87 1.2 M0.38 0.08 C90.37 1.4, 182.65 1.49, 250.89 0.59 M250.82 0.78 C250.82 27.39, 253.29 55.23, 252.71 136.88 M250.96 0.3 C250.73 48.8, 250.05 100, 250.39 136.52 M250.44 138.4 C196.84 138.79, 142.79 138.03, -1.19 136.56 M251.64 136.82 C199.25 137.2, 146.99 137.21, 0.39 137.61 M1.69 136.02 C0.79 86.54, 1.29 35.6, 0.36 0.96 M-0.68 137.78 C0.19 91.83, 0.22 47.88, -0.36 0.21" stroke="#000000" stroke-width="1" fill="none"></path></g><g transform="translate(1600.5 156.5) rotate(0 21 18)"><text x="21" y="25" font-family="Virgil, Segoe UI Emoji" font-size="28px" fill="#000000" text-anchor="middle" style="white-space: pre;" direction="ltr">DB</text></g><g stroke-linecap="round"><g transform="translate(244 233) rotate(0 47.40894323530608 -20.852262138603237)"><path d="M1.07 0.91 C16.77 -5.94, 79.08 -33.87, 94.65 -40.67 M0.17 0.35 C15.73 -6.92, 78.41 -35.62, 94.04 -42.62" stroke="#000000" stroke-width="1" fill="none"></path></g><g transform="translate(244 233) rotate(0 47.40894323530608 -20.852262138603237)"><path d="M24.18 -18.84 C16 -11.88, 10.04 -3.77, 2.74 0.72 M23.55 -19.16 C14.56 -11.43, 7.09 -5.53, 1.06 0.27" stroke="#000000" stroke-width="1" fill="none"></path></g><g transform="translate(244 233) rotate(0 47.40894323530608 -20.852262138603237)"><path d="M32.52 -0.09 C21.45 0.62, 12.68 2.4, 2.74 0.72 M31.89 -0.41 C19.99 0.39, 9.46 -0.59, 1.06 0.27" stroke="#000000" stroke-width="1" fill="none"></path></g><g transform="translate(244 233) rotate(0 47.40894323530608 -20.852262138603237)"><path d="M74.13 -20.55 C80.32 -28.09, 88.88 -34.09, 95.71 -42.81 M73.5 -20.87 C80.62 -28.22, 88.93 -37.65, 94.03 -43.26" stroke="#000000" stroke-width="1" fill="none"></path></g><g transform="translate(244 233) rotate(0 47.40894323530608 -20.852262138603237)"><path d="M65.65 -39.23 C74.77 -40.54, 86.2 -40.24, 95.71 -42.81 M65.03 -39.56 C75.11 -40, 86.53 -42.58, 94.03 -43.26" stroke="#000000" stroke-width="1" fill="none"></path></g></g><g stroke-linecap="round"><g transform="translate(258.37912313006814 71.30395230686082) rotate(0 39.94916856991125 21.27486655019129)"><path d="M-0.62 0.85 C12.45 7.91, 65 34.37, 78.43 41.3 M1.25 0.25 C14.68 7.52, 67.49 35.04, 80.52 42.3" stroke="#000000" stroke-width="1" fill="none"></path></g><g transform="translate(258.37912313006814 71.30395230686082) rotate(0 39.94916856991125 21.27486655019129)"><path d="M30.57 2.6 C18.57 3.93, 11.58 2.79, -1.85 0.16 M29.7 4.88 C19.92 2.74, 10.74 1.36, 0.25 1.16" stroke="#000000" stroke-width="1" fill="none"></path></g><g transform="translate(258.37912313006814 71.30395230686082) rotate(0 39.94916856991125 21.27486655019129)"><path d="M21.21 20.86 C12.16 16.79, 7.96 10.21, -1.85 0.16 M20.34 23.14 C13.26 15.62, 6.85 8.83, 0.25 1.16" stroke="#000000" stroke-width="1" fill="none"></path></g><g transform="translate(258.37912313006814 71.30395230686082) rotate(0 39.94916856991125 21.27486655019129)"><path d="M52.25 36.02 C57.91 40.06, 68.66 41.31, 79.29 41.6 M51.38 38.31 C59.26 38.73, 67.7 39.73, 81.39 42.6" stroke="#000000" stroke-width="1" fill="none"></path></g><g transform="translate(258.37912313006814 71.30395230686082) rotate(0 39.94916856991125 21.27486655019129)"><path d="M61.95 17.94 C64.57 27.32, 72.42 33.97, 79.29 41.6 M61.08 20.23 C66.16 25.98, 71.72 32.33, 81.39 42.6" stroke="#000000" stroke-width="1" fill="none"></path></g></g><g stroke-linecap="round"><g transform="translate(633 164.5) rotate(0 46.61266716538 0.2054619040340242)"><path d="M0.35 -1.04 C15.52 -0.83, 76.38 1.24, 91.97 1.45 M-0.92 1.04 C14.53 0.85, 78.38 -0.45, 94.14 -0.44" stroke="#000000" stroke-width="1" fill="none"></path></g><g transform="translate(633 164.5) rotate(0 46.61266716538 0.2054619040340242)"><path d="M27.09 -12.22 C18.79 -5.28, 5.91 -2.23, 2.27 -2.15 M29.5 -10.25 C18.4 -6.24, 9.94 -3.89, 0.13 -1.64" stroke="#000000" stroke-width="1" fill="none"></path></g><g transform="translate(633 164.5) rotate(0 46.61266716538 0.2054619040340242)"><path d="M26.52 8.3 C18.4 7.46, 5.73 2.74, 2.27 -2.15 M28.93 10.26 C18.15 7.34, 9.88 2.75, 0.13 -1.64" stroke="#000000" stroke-width="1" fill="none"></path></g><g transform="translate(633 164.5) rotate(0 46.61266716538 0.2054619040340242)"><path d="M64.35 8.43 C77.43 7.6, 85.98 3.05, 96.06 -1.56 M66.75 10.39 C74.9 7.39, 85.54 2.96, 93.92 -1.05" stroke="#000000" stroke-width="1" fill="none"></path></g><g transform="translate(633 164.5) rotate(0 46.61266716538 0.2054619040340242)"><path d="M64.11 -12.09 C77.33 -5.15, 85.96 -1.91, 96.06 -1.56 M66.52 -10.13 C74.61 -6.19, 85.34 -3.69, 93.92 -1.05" stroke="#000000" stroke-width="1" fill="none"></path></g></g><g stroke-linecap="round"><g transform="translate(1001 166.5) rotate(0 50.64696166394276 0.033718392605351255)"><path d="M0.78 0.12 C17.7 0.15, 84.84 1.1, 101.56 1.07 M-0.27 -0.86 C16.45 -1.22, 83.08 -0.84, 100.38 -0.49" stroke="#000000" stroke-width="1" fill="none"></path></g><g transform="translate(1001 166.5) rotate(0 50.64696166394276 0.033718392605351255)"><path d="M29.28 -10.58 C22.32 -8.12, 11.89 -2.47, 2.29 0.12 M29.59 -10.72 C21.33 -6.85, 11.6 -3.63, 1.24 0.45" stroke="#000000" stroke-width="1" fill="none"></path></g><g transform="translate(1001 166.5) rotate(0 50.64696166394276 0.033718392605351255)"><path d="M29.07 9.94 C22.03 6.15, 11.65 5.56, 2.29 0.12 M29.39 9.8 C20.98 7.42, 11.31 4.4, 1.24 0.45" stroke="#000000" stroke-width="1" fill="none"></path></g><g transform="translate(1001 166.5) rotate(0 50.64696166394276 0.033718392605351255)"><path d="M72.28 8.71 C82.41 4.75, 89.2 4.34, 101.89 -0.49 M72.59 8.58 C81.36 6.37, 88.86 3.54, 100.85 -0.16" stroke="#000000" stroke-width="1" fill="none"></path></g><g transform="translate(1001 166.5) rotate(0 50.64696166394276 0.033718392605351255)"><path d="M72.52 -11.81 C82.73 -9.52, 89.45 -3.68, 101.89 -0.49 M72.83 -11.94 C81.73 -7.91, 89.16 -4.49, 100.85 -0.16" stroke="#000000" stroke-width="1" fill="none"></path></g></g><g stroke-linecap="round"><g transform="translate(1362 176.1483741062807) rotate(0 59.58130855533307 -2.2320884319022696)"><path d="M-0.36 0.93 C19.37 0.18, 97.37 -2.97, 117.22 -3.76 M1.65 0.37 C21.87 -0.77, 100.08 -4.39, 119.52 -5.39" stroke="#000000" stroke-width="1" fill="none"></path></g><g transform="translate(1362 176.1483741062807) rotate(0 59.58130855533307 -2.2320884319022696)"><path d="M28.95 -11.74 C23.39 -7.02, 17.7 -5.53, -0.16 2.75 M26.86 -11.02 C18.94 -6.92, 10.7 -3.08, -1.05 1.84" stroke="#000000" stroke-width="1" fill="none"></path></g><g transform="translate(1362 176.1483741062807) rotate(0 59.58130855533307 -2.2320884319022696)"><path d="M29.77 8.76 C23.92 9.32, 18.06 6.65, -0.16 2.75 M27.67 9.49 C19.41 7.17, 10.9 4.59, -1.05 1.84" stroke="#000000" stroke-width="1" fill="none"></path></g><g transform="translate(1362 176.1483741062807) rotate(0 59.58130855533307 -2.2320884319022696)"><path d="M93.42 4.93 C98.96 5.15, 104.51 1.98, 119.72 -3.58 M91.32 5.65 C100.64 2.77, 109.73 -0.59, 118.83 -4.49" stroke="#000000" stroke-width="1" fill="none"></path></g><g transform="translate(1362 176.1483741062807) rotate(0 59.58130855533307 -2.2320884319022696)"><path d="M92.42 -15.57 C98.29 -11.19, 104.04 -10.2, 119.72 -3.58 M90.32 -14.84 C100.05 -11.31, 109.45 -8.25, 118.83 -4.49" stroke="#000000" stroke-width="1" fill="none"></path></g></g></svg>